<?xml version="1.0" encoding="UTF-8" standalone="no"?>
<svg xmlns="http://www.w3.org/2000/svg" viewBox="0 0 500 500">
  <path d="M250 10c-132.3 0-240 107.7-240 240s107.7 240 240 240 240-107.7 240-240S382.3 10 250 10zm0 460c-121.5 0-220-98.5-220-220S128.5 30 250 30s220 98.5 220 220-98.5 220-220 220z"/>
  <path d="M250 70c-99.4 0-180 80.6-180 180s80.6 180 180 180 180-80.6 180-180S349.4 70 250 70zm0 340c-88.4 0-160-71.6-160-160s71.6-160 160-160 160 71.6 160 160-71.6 160-160 160z"/>
  <path d="M250 130c-66.3 0-120 53.7-120 120s53.7 120 120 120 120-53.7 120-120-53.7-120-120-120zm0 220c-55.2 0-100-44.8-100-100s44.8-100 100-100 100 44.8 100 100-44.8 100-100 100z"/>
  <path d="M250 190c-33.1 0-60 26.9-60 60s26.9 60 60 60 60-26.9 60-60-26.9-60-60-60zm0 100c-22.1 0-40-17.9-40-40s17.9-40 40-40 40 17.9 40 40-17.9 40-40 40z"/>
  <path d="M250 250c0-11 9-20 20-20s20 9 20 20-9 20-20 20-20-9-20-20z"/>
  <path d="M190 250c0-11 9-20 20-20s20 9 20 20-9 20-20 20-20-9-20-20z"/>
  <path d="M220 290c0-11 9-20 20-20s20 9 20 20-9 20-20 20-20-9-20-20z"/>
  <path d="M280 290c0-11 9-20 20-20s20 9 20 20-9 20-20 20-20-9-20-20z"/>
  <path d="M310 250c0-11 9-20 20-20s20 9 20 20-9 20-20 20-20-9-20-20z"/>
  <path d="M250 310c-33.1 0-60 26.9-60 60s26.9 60 60 60 60-26.9 60-60-26.9-60-60-60zm0 100c-22.1 0-40-17.9-40-40s17.9-40 40-40 40 17.9 40 40-17.9 40-40 40z"/>
</svg> 